<svg xmlns="http://www.w3.org/2000/svg"  viewBox="0 0 4335 4335" width="67px" height="67px" fill-rule="evenodd" clip-rule="evenodd" image-rendering="optimizeQuality" shape-rendering="geometricPrecision" text-rendering="geometricPrecision"><polygon points="1936,119 2321,119 2321,1936 4138,1936 4138,2322 2321,2322 2321,4139 1936,4139 1936,2322 118,2322 118,1936 1936,1936"/><path d="M877 119c-419,0 -758,339 -758,758 0,419 339,758 758,758 419,0 758,-339 758,-758 0,-419 -339,-758 -758,-758zm0 314c-246,0 -445,199 -445,445 0,246 199,445 445,445 246,0 445,-199 445,-445 0,-246 -199,-445 -445,-445z"/><path d="M3380 2622c-419,0 -758,339 -758,758 0,419 339,758 758,758 419,0 758,-339 758,-758 0,-419 -339,-758 -758,-758zm0 314c-246,0 -445,199 -445,445 0,246 199,445 445,445 246,0 445,-199 445,-445 0,-246 -199,-445 -445,-445z"/><polygon points="2685,433 2936,182 3380,627 3824,182 4075,433 3631,877 4075,1322 3824,1572 3380,1128 2936,1572 2685,1322 3129,877"/><polygon points="182,2936 432,2686 877,3130 1321,2686 1572,2936 1127,3381 1572,3825 1321,4076 877,3631 432,4076 182,3825 626,3381"/></svg>